PathFileType	4	(X/Y/Z)	s01c0103.trc
DataRate	CameraRate	NumFrames	NumMarkers	Units	OrigDataRate	OrigDataStartFrame	OrigNumFrames
200	200	7	48	mm	200	1500	2000
Frame#	Time	racr			lacr			c7			jug			rlel			rdr			llel			ldr			s2			lic			ric			lasi			rasi			rpsi			lpsi			rgt			lgt			rth1			rth2			rth3			rth4			rlfc			rsh1			rsh2			rsh3			rsh4			rlmal			rmmal			rcal			rtoe			rmt5			lth1			lth2			lth4			lth3			llfc			lsh1			lsh2			lsh3			lsh4			llmal			lmmal			lcal			ltoe			lmt5			SBIKE			LBIKE			RBIKE			
		X1	Y1	Z1	X2	Y2	Z2	X3	Y3	Z3	X4	Y4	Z4	X5	Y5	Z5	X6	Y6	Z6	X7	Y7	Z7	X8	Y8	Z8	X9	Y9	Z9	X10	Y10	Z10	X11	Y11	Z11	X12	Y12	Z12	X13	Y13	Z13	X14	Y14	Z14	X15	Y15	Z15	X16	Y16	Z16	X17	Y17	Z17	X18	Y18	Z18	X19	Y19	Z19	X20	Y20	Z20	X21	Y21	Z21	X22	Y22	Z22	X23	Y23	Z23	X24	Y24	Z24	X25	Y25	Z25	X26	Y26	Z26	X27	Y27	Z27	X28	Y28	Z28	X29	Y29	Z29	X30	Y30	Z30	X31	Y31	Z31	X32	Y32	Z32	X33	Y33	Z33	X34	Y34	Z34	X35	Y35	Z35	X36	Y36	Z36	X37	Y37	Z37	X38	Y38	Z38	X39	Y39	Z39	X40	Y40	Z40	X41	Y41	Z41	X42	Y42	Z42	X43	Y43	Z43	X44	Y44	Z44	X45	Y45	Z45	X46	Y46	Z46	X47	Y47	Z47	X48	Y48	Z48	
1500	7.5000	497.350128	1326.903320	-103.247116	526.562378	1292.596069	-418.240082	470.042603	1392.215820	-260.093689	457.637299	1225.670776	-258.886475	566.210327	1065.542725	-3.173574	731.379578	861.916504	-59.832664	555.619812	1033.198853	-540.347717	721.421143	867.856323	-436.094604	0.000000	0.000000	-0.000000	107.552460	1170.129150	-437.255066	101.994850	1172.154541	-102.471214	114.701927	1117.350220	-402.732513	131.915375	1125.680054	-130.232483	-29.081791	1196.523193	-203.552521	-34.723225	1198.117676	-310.818481	55.566200	1045.379639	-72.116920	71.590736	1049.292847	-454.495575	125.010338	930.645203	-55.061687	175.817490	864.455444	-59.036293	225.558411	789.710999	-72.275146	222.106232	896.125183	-69.832863	271.209290	681.858826	-92.016335	251.145294	567.376831	-58.700687	249.612717	482.633026	-64.118767	239.104630	394.783112	-75.323723	297.056213	481.971313	-102.650948	213.890900	272.244019	-97.654396	258.272705	291.263916	-171.787018	172.802780	250.048492	-151.559174	439.719391	207.291656	-132.165298	332.029419	183.975922	-65.010292	169.972870	980.091736	-455.019897	258.285217	967.293579	-460.557861	267.906525	1019.540100	-447.389496	340.550751	944.598755	-447.790741	430.188263	864.488770	-424.499176	332.354156	811.006348	-451.898438	270.740387	751.090088	-441.085266	207.614258	694.371033	-425.513702	311.475586	714.557373	-411.374451	117.564003	615.548340	-407.200317	145.931534	604.912598	-325.856171	57.742661	614.001465	-361.690735	251.873505	416.950409	-374.551270	160.014374	474.524689	-437.695068	-224.338593	893.206726	-253.383942	-13.008645	84.776802	-457.765747	-22.725698	80.590431	-57.579273	
1501	7.5050	498.164032	1326.787476	-104.228882	525.727661	1295.036133	-418.548737	469.587189	1393.227905	-260.101105	457.411987	1226.673828	-259.564819	567.464966	1065.671143	-4.173141	731.751953	861.047302	-60.155693	555.982239	1035.399536	-538.650024	721.337769	869.097168	-435.509369	0.000000	0.000000	-0.000000	106.837395	1171.165771	-436.060486	103.616852	1170.738525	-101.390823	114.045166	1118.117310	-401.324432	132.922531	1124.375366	-128.963257	-28.749796	1195.766235	-200.326660	-35.100746	1197.953735	-307.653412	56.137554	1043.813965	-70.355865	70.565193	1050.911255	-453.190674	123.023994	929.143127	-53.388794	172.197266	861.843872	-57.309486	220.361191	785.860229	-70.210732	218.755844	892.443359	-68.325233	264.355652	677.541199	-90.335258	243.516632	563.107361	-57.451168	241.863022	478.441010	-63.064167	231.433807	390.572632	-74.578690	290.018311	477.740723	-100.726776	207.200989	268.326660	-97.726265	251.156418	286.629089	-171.243988	166.039978	247.270172	-151.560486	432.121155	199.026962	-132.430923	324.156372	177.973236	-65.066223	170.289658	983.091309	-454.398834	258.510803	972.808105	-460.774017	267.150879	1024.968018	-447.238525	341.416962	951.713196	-447.992218	433.821106	874.608276	-425.163116	336.588257	820.310181	-451.754303	275.489655	760.001343	-440.814819	212.976364	702.725464	-425.462280	316.806366	724.009155	-412.110992	124.100380	621.872375	-406.380371	153.012497	611.819092	-325.180145	64.114044	619.265808	-360.835999	260.771088	424.581940	-374.122131	167.997009	480.993958	-437.195435	-224.372147	893.213867	-253.259262	-13.031590	84.839081	-457.747162	-22.731802	80.604103	-57.578003	
1502	7.5100	498.867859	1326.627563	-105.184471	524.874573	1297.449829	-418.785675	469.111481	1394.210693	-260.095825	457.164276	1227.652466	-260.251831	568.911011	1065.796509	-5.155293	732.396179	860.528320	-60.223507	553.647644	1037.064819	-538.820801	721.072693	870.497192	-434.898285	0.000000	0.000000	-0.000000	104.983757	1172.056274	-433.976196	105.139709	1169.238770	-100.297302	113.399918	1119.194336	-400.162231	133.826340	1123.251343	-127.817253	-28.562918	1195.141357	-197.214417	-35.586662	1197.943970	-304.559937	56.729725	1042.555054	-68.724625	69.414284	1052.218506	-451.789124	121.149986	928.183594	-51.694874	169.021835	859.829285	-55.590057	215.630386	782.972229	-68.091179	216.151123	889.564148	-66.621338	257.867432	674.331665	-88.646904	236.048447	559.436707	-56.060017	234.279724	474.787842	-61.996117	223.900650	387.024841	-73.836777	283.068573	474.072632	-98.864464	200.260300	265.225586	-97.673721	243.952103	282.708344	-170.647171	159.485428	245.691528	-151.771378	424.205048	191.243500	-132.622360	315.844421	172.429169	-65.284920	170.162521	986.148804	-453.410919	258.475800	977.361450	-460.016022	266.138550	1030.127563	-446.777802	342.019379	958.532959	-448.069214	436.898346	884.536072	-425.891296	340.383789	829.523499	-451.704987	279.975983	768.516785	-440.495087	218.261612	710.600830	-425.099152	321.862701	732.457703	-412.093353	130.593552	627.631348	-405.583618	160.136963	617.936218	-324.509155	70.478935	623.722290	-359.966095	270.173706	432.001923	-374.161957	176.492004	487.158264	-436.672729	-224.447556	893.232422	-253.213272	-13.051196	84.838501	-457.742401	-22.745165	80.616463	-57.577053	
1503	7.5150	499.473450	1326.434204	-106.096947	523.996826	1299.809814	-418.954285	468.636139	1395.131470	-260.080017	456.897247	1228.594360	-260.945068	570.274719	1065.895386	-5.948475	733.299683	860.136475	-60.641464	551.702881	1038.350708	-538.198364	720.728638	872.114685	-434.150513	0.000000	0.000000	-0.000000	103.810822	1173.464478	-432.837311	106.578110	1167.757202	-99.332947	112.656036	1120.424438	-399.118835	134.568085	1122.357788	-126.774948	-28.461504	1194.635010	-194.221680	-36.172352	1198.111572	-301.583008	57.218605	1041.771240	-67.109428	68.358238	1053.474976	-450.373962	119.483910	927.611145	-50.115063	166.078888	858.430359	-53.785774	211.507782	780.713196	-65.950981	213.772247	887.406799	-64.964325	251.875504	671.752686	-86.868973	228.720230	556.358765	-54.658115	227.108063	471.855133	-60.751678	216.578949	384.106140	-73.131302	276.073151	470.887878	-97.233757	194.038620	262.948669	-96.202660	236.727081	279.507812	-170.002396	152.451569	244.394470	-151.427811	416.146667	183.811707	-132.828873	307.295013	167.543106	-65.449562	170.230164	989.269165	-452.577332	258.406036	982.215576	-459.411224	265.121918	1034.910767	-446.328735	342.336365	965.040100	-447.898499	439.372986	894.300354	-426.686035	343.921753	838.451294	-451.505829	284.279175	776.775696	-440.253296	223.456314	717.772095	-424.245728	326.884827	740.881592	-412.600067	137.050293	632.538818	-404.878571	166.685745	623.382812	-322.960632	76.820366	627.321228	-359.092529	279.701538	439.033325	-373.978210	185.134598	492.917358	-436.184357	-224.519852	893.225525	-253.132462	-13.074636	84.870522	-457.748444	-22.760027	80.624870	-57.581116	
1504	7.5200	500.100708	1326.233643	-106.894951	523.084167	1302.085815	-419.060791	468.181305	1395.960815	-260.054443	456.613953	1229.487671	-261.642029	571.320740	1066.094482	-6.897721	733.778503	859.696350	-60.516800	549.323730	1039.223022	-537.572021	720.269775	874.088440	-433.304932	0.000000	0.000000	-0.000000	103.202034	1175.234131	-432.627289	107.736122	1166.703491	-98.611351	111.751633	1121.865601	-398.175323	135.154190	1121.700684	-125.928665	-28.486467	1194.305664	-191.457092	-36.851906	1198.484497	-298.764954	57.577866	1041.289917	-65.638718	67.478302	1054.887695	-449.184692	118.003159	927.527039	-48.579720	163.587036	857.644836	-51.936459	207.843277	779.256897	-63.723621	211.739441	885.902527	-63.237049	246.317490	669.535522	-85.055267	221.809631	554.028625	-53.248989	220.120163	469.535736	-59.400238	209.446289	381.730316	-72.385376	269.504608	468.537689	-95.220131	187.114471	261.592072	-95.788223	229.548645	277.033600	-169.315552	145.764023	244.161514	-151.355316	407.738403	176.718231	-133.160294	298.673096	163.206757	-65.533669	169.760956	992.374756	-451.537323	258.295929	986.870300	-458.501923	264.135956	1039.670288	-445.788239	342.429810	971.085266	-447.398804	441.242645	903.736145	-427.405548	346.997742	846.974609	-451.366455	288.297668	784.572998	-439.863556	228.508102	724.514832	-423.625183	331.725861	748.813660	-413.098877	143.712250	636.732483	-404.043732	174.319229	627.961304	-323.005951	83.111343	630.014465	-358.234039	289.509521	445.726868	-373.822632	193.980301	498.010071	-435.724304	-224.576675	893.211975	-253.034088	-13.104144	84.886711	-457.711212	-22.770603	80.598289	-57.561932	
1505	7.5250	500.604584	1326.032837	-107.699760	522.124512	1304.247437	-419.116608	467.767487	1396.673584	-260.021423	456.317535	1230.320190	-262.340302	572.410522	1066.265259	-7.685469	734.264404	859.337219	-60.467827	546.399597	1039.784058	-536.797852	719.569885	876.020386	-432.568359	0.000000	0.000000	-0.000000	101.030754	1176.926025	-431.261383	108.793114	1165.947632	-97.702667	110.684784	1123.515381	-397.309418	135.617615	1121.333740	-125.009178	-28.647226	1194.287598	-188.911118	-37.614761	1199.092896	-296.147919	57.851643	1041.152710	-64.353981	66.734818	1056.644531	-448.319885	116.736961	927.788574	-47.184109	161.530594	857.304810	-50.131420	204.712204	778.386108	-61.506824	210.000595	884.967468	-61.517113	241.186554	667.753662	-83.202843	215.382309	552.444763	-51.866932	213.271149	467.878113	-58.465748	202.625092	380.147247	-71.515205	262.995880	466.687195	-93.248177	181.396988	259.591827	-97.284973	222.484116	275.291870	-168.592468	138.176071	246.145798	-149.307419	399.081512	170.202133	-133.416885	289.814880	159.577713	-65.598831	169.499649	995.502502	-450.701874	258.098328	991.269165	-457.403290	262.851074	1044.325195	-445.776031	342.505219	977.011414	-446.969574	442.352356	912.823914	-428.079895	349.667847	855.099060	-451.202148	292.076355	791.729309	-439.563019	233.835815	730.562439	-422.969910	336.385223	756.501343	-413.699310	150.799103	639.967590	-402.831146	181.059616	631.827026	-322.444214	89.316254	631.756653	-357.409271	299.570496	452.036072	-373.764893	202.949524	502.460205	-435.410370	-224.636337	893.218506	-252.925308	-13.122643	84.919342	-457.681183	-22.798668	80.605133	-57.552341	
1506	7.5300	501.079803	1325.791016	-108.388229	521.109253	1306.262329	-419.140747	467.409180	1397.254395	-259.987091	456.011017	1231.079956	-263.037384	573.375549	1066.372803	-8.402467	734.694946	859.127808	-60.365280	543.909119	1040.673828	-535.902771	718.784485	877.945007	-432.158508	0.000000	0.000000	-0.000000	99.255829	1178.769043	-430.196350	109.564819	1165.662964	-96.785706	109.439453	1125.419922	-396.567444	136.162186	1121.346680	-124.188232	-28.942373	1194.600342	-186.646561	-38.447327	1199.964966	-293.764740	58.101830	1041.281494	-63.224613	65.809021	1058.798828	-448.126404	115.663292	928.492737	-45.901863	159.739456	857.483643	-48.367081	202.049316	778.241821	-59.242149	208.482941	884.588928	-59.969406	236.599869	666.519409	-81.329605	209.507034	551.590454	-50.552982	206.936630	467.081055	-57.347847	195.979340	379.577606	-70.539970	257.219543	465.621185	-91.407310	174.667572	259.506775	-96.731735	215.600815	274.288696	-167.839020	131.546295	247.532837	-148.742889	390.211029	164.058731	-133.712845	280.784424	156.461258	-65.606743	169.059708	998.650696	-449.839691	257.921692	995.526550	-456.073303	261.887268	1048.792969	-445.346191	342.534607	982.570862	-446.712402	442.600952	921.523987	-428.704834	351.939392	862.679688	-451.069580	295.610992	798.314148	-439.246124	238.735275	735.920105	-422.335022	340.788818	763.593323	-414.148895	156.631805	642.300659	-402.258728	187.380386	634.898499	-321.866821	95.391090	632.505371	-356.637756	309.728882	457.797089	-373.643097	211.860413	506.290039	-435.148315	-224.672745	893.211121	-252.806625	-13.122174	84.923653	-457.657898	-22.811155	80.593063	-57.513645	
